<?xml version="1.0" encoding="UTF-8"?>
<svg width="1200pt" height="1200pt" version="1.1" viewBox="0 0 1200 1200" xmlns="http://www.w3.org/2000/svg">
 <path d="m984 694.8c-36 0-68.398 14.398-91.199 38.398l-106.8-62.398c8.3984-21.602 13.199-45.602 13.199-70.801s-4.8008-49.199-13.199-70.801l106.8-62.398c22.801 24 55.199 38.398 91.199 38.398 69.602 0 127.2-57.602 127.2-127.2 0-69.602-57.598-126-127.2-126s-127.2 57.602-127.2 127.2c0 12 2.3984 22.801 4.8008 33.602l-108 62.398c-30-37.199-73.199-63.602-122.4-70.801l-0.003906-124.8c55.199-14.398 96-63.602 96-122.4 0-69.602-56.398-127.2-127.2-127.2-70.801-0.003906-127.2 57.598-127.2 127.2 0 58.801 40.801 109.2 96 122.4v124.8c-49.199 8.3984-92.398 33.602-122.4 70.801l-108-62.398c3.6016-10.801 4.8008-22.801 4.8008-33.602-0.003906-70.801-56.402-127.2-127.2-127.2s-127.2 56.398-127.2 126 57.598 127.2 127.2 127.2c36 0 68.398-14.398 91.199-38.398l106.8 62.398c-8.3984 21.602-13.199 45.602-13.199 70.801s4.8008 49.199 13.199 70.801l-106.8 62.398c-22.801-24-55.199-38.398-91.199-38.398-69.602 0-127.2 57.602-127.2 127.2 0 69.602 57.598 126 127.2 126s127.2-57.602 127.2-127.2c0-12-2.3984-22.801-4.8008-33.602l108-62.398c30 37.199 73.199 63.602 122.4 70.801v124.8c-55.199 14.398-96 63.602-96 122.4 0 69.602 56.398 127.2 127.2 127.2 70.801 0 127.2-57.602 127.2-127.2 0-58.801-40.801-109.2-96-122.4l0.003907-124.8c49.199-8.3984 92.398-33.602 122.4-70.801l108 62.398c-3.6016 10.801-4.8008 21.602-4.8008 33.602 0.003906 70.801 56.402 127.2 127.2 127.2 69.602 0 127.2-57.602 127.2-127.2 0-69.602-57.598-126-127.2-126zm0-381.6c36 0 64.801 28.801 64.801 64.801s-28.801 64.801-64.801 64.801-64.801-28.801-64.801-64.801 28.801-64.801 64.801-64.801zm-768 129.6c-36 0-64.801-28.801-64.801-64.801s28.801-64.801 64.801-64.801 64.801 28.801 64.801 64.801-28.801 64.801-64.801 64.801zm0 444c-36 0-64.801-28.801-64.801-64.801s28.801-64.801 64.801-64.801 64.801 28.801 64.801 64.801-28.801 64.801-64.801 64.801zm319.2-729.6c0-36 28.801-64.801 64.801-64.801s64.801 28.801 64.801 64.801-28.801 64.801-64.801 64.801-64.801-28.801-64.801-64.801zm129.6 885.6c0 36-28.801 64.801-64.801 64.801s-64.801-28.801-64.801-64.801 28.801-64.801 64.801-64.801 64.801 28.801 64.801 64.801zm-64.801-306c-75.602 0-136.8-61.199-136.8-136.8s61.199-136.8 136.8-136.8 136.8 61.199 136.8 136.8-61.199 136.8-136.8 136.8zm384 150c-36 0-64.801-28.801-64.801-64.801s28.801-64.801 64.801-64.801 64.801 28.801 64.801 64.801-30 64.801-64.801 64.801z"/>
</svg>
